#!OML:ASF X:\für Bonn\!DataBase\2005_08_10_Bjorn_Final\c3d\bjorn.ASF
:FULLY-SPECIFIED
:DEGREES
154
root 15.5442 18.3105 1.24007 169.15 -103.362 -134.119
lowerback 74.3683 -4.58183 12.255
upperback 15.6103 0.459749 -0.0959169
thorax -2.5079 0.0494161 -4.98972
lowerneck 7.39641 -7.39917 10.7288
upperneck -21.0276 -8.94081 0.0234596
head -8.26764 -5.33322 -0.848398
rclavicle -1.27222e-014 7.95139e-015
rhumerus 70.56 -14.3176 -47.6049
rradius 19.4255
rwrist -9.14207
rhand -33.314 15.0813
rfingers 7.12502
rthumb -6.51735 -14.7985
lclavicle -1.27222e-014 7.95139e-015
lhumerus -10.8172 -30.5009 80.8285
lradius 57.1248
lwrist -1.45263
lhand -40.2358 -11.4776
lfingers 7.12502
lthumb -13.1951 18.0848
rfemur -65.361 -6.44787 2.26568
rtibia 53.1025
rfoot -17.2056 -2.02831
rtoes -10.5118
lfemur -64.5251 0.439468 -28.6812
ltibia 50.0265
lfoot -11.1988 5.82775
ltoes -20.1695
155
root 15.538 18.3084 1.26363 169.203 -103.317 -134.166
lowerback 74.5264 -4.60072 12.1966
upperback 15.5843 0.416803 -0.118781
thorax -2.53067 0.0281405 -4.97192
lowerneck 7.52968 -7.39177 10.629
upperneck -21.0958 -8.91116 0.102648
head -8.30404 -5.31957 -0.803308
rclavicle -4.45278e-014 2.70347e-014
rhumerus 70.5504 -14.3542 -47.6183
rradius 19.4816
rwrist -8.54066
rhand -34.1644 15.559
rfingers 7.12502
rthumb -7.33823 -14.2937
lclavicle -4.45278e-014 2.70347e-014
lhumerus -10.919 -30.4552 80.8162
lradius 57.2043
lwrist -1.0784
lhand -39.8125 -11.5697
lfingers 7.12502
lthumb -12.7871 18.0187
rfemur -65.3288 -6.58277 2.31908
rtibia 53.057
rfoot -17.1499 -1.86053
rtoes -10.378
lfemur -64.5149 0.0661863 -28.4269
ltibia 50.1192
lfoot -11.3543 6.23997
ltoes -20.4566
156
root 15.5328 18.3076 1.2874 169.34 -103.249 -134.31
lowerback 74.6491 -4.59502 12.136
upperback 15.5875 0.387495 -0.116585
thorax -2.52224 0.0101316 -4.93122
lowerneck 7.64061 -7.36577 10.4818
upperneck -21.1707 -8.86715 0.182295
head -8.33508 -5.29649 -0.753225
rclavicle 6.36111e-015 -3.18055e-015
rhumerus 70.5227 -14.3695 -47.5084
rradius 19.5778
rwrist -7.96584
rhand -35.1045 16.011
rfingers 7.12502
rthumb -8.24558 -13.808
lclavicle 6.36111e-015 -3.18055e-015
lhumerus -10.977 -30.3947 80.8241
lradius 57.2272
lwrist -0.678805
lhand -39.3776 -11.7636
lfingers 7.12502
lthumb -12.3677 17.8505
rfemur -65.2931 -6.69923 2.41161
rtibia 53.0052
rfoot -17.0983 -1.69788
rtoes -10.5295
lfemur -64.5033 -0.275069 -28.1556
ltibia 50.2047
lfoot -11.4863 6.64345
ltoes -20.618
157
root 15.5273 18.3067 1.31125 169.43 -103.201 -134.404
lowerback 74.7487 -4.60415 12.0947
upperback 15.5895 0.353672 -0.132435
thorax -2.51601 -0.00549041 -4.91765
lowerneck 7.75136 -7.34713 10.3607
upperneck -21.232 -8.82166 0.290038
head -8.362 -5.27634 -0.698272
rclavicle 1.59028e-014 1.74931e-014
rhumerus 70.4411 -14.3925 -47.3837
rradius 19.6499
rwrist -7.38893
rhand -36.1435 16.4792
rfingers 7.12502
rthumb -9.24828 -13.298
lclavicle 1.59028e-014 1.74931e-014
lhumerus -11.0362 -30.381 80.8214
lradius 57.2565
lwrist -0.294618
lhand -38.8684 -11.9743
lfingers 7.12502
lthumb -11.8768 17.6689
rfemur -65.2411 -6.81197 2.46147
rtibia 52.9508
rfoot -17.0637 -1.54468
rtoes -10.4393
lfemur -64.4839 -0.610421 -27.9225
ltibia 50.2825
lfoot -11.6073 7.03249
ltoes -20.811
158
root 15.5225 18.306 1.33484 169.56 -103.148 -134.539
lowerback 74.8067 -4.59692 12.0525
upperback 15.612 0.328842 -0.125775
thorax -2.48961 -0.0195689 -4.88276
lowerneck 7.87091 -7.31689 10.2292
upperneck -21.306 -8.76629 0.375134
head -8.39471 -5.24906 -0.649667
rclavicle 1.59028e-014 -2.22639e-014
rhumerus 70.3522 -14.3978 -47.2095
rradius 19.6919
rwrist -6.7454
rhand -37.3407 17.0173
rfingers 7.12502
rthumb -10.4033 -12.7054
lclavicle 1.59028e-014 -2.22639e-014
lhumerus -11.0957 -30.3739 80.8411
lradius 57.3036
lwrist 0.119815
lhand -38.328 -12.3212
lfingers 7.12502
lthumb -11.3556 17.3513
rfemur -65.1982 -6.93972 2.5371
rtibia 52.8914
rfoot -17.0139 -1.37965
rtoes -10.4706
lfemur -64.4697 -0.935163 -27.6838
ltibia 50.3556
lfoot -11.7629 7.39277
ltoes -20.9531
159
root 15.5184 18.304 1.35843 169.614 -103.099 -134.585
lowerback 74.8492 -4.58406 11.9955
upperback 15.625 0.300261 -0.129704
thorax -2.47793 -0.0348567 -4.85372
lowerneck 7.97556 -7.28265 10.0882
upperneck -21.3544 -8.70303 0.48243
head -8.41431 -5.21835 -0.594395
rclavicle -1.90833e-014 -7.95139e-015
rhumerus 70.2174 -14.3905 -47.0549
rradius 19.7589
rwrist -6.09415
rhand -38.5636 17.488
rfingers 7.12502
rthumb -11.5828 -12.1719
lclavicle -1.90833e-014 -7.95139e-015
lhumerus -11.2016 -30.3719 80.8608
lradius 57.3667
lwrist 0.480403
lhand -37.7648 -12.651
lfingers 7.12502
lthumb -10.8125 17.0507
rfemur -65.1722 -7.06015 2.58013
rtibia 52.8389
rfoot -16.9801 -1.20818
rtoes -10.3571
lfemur -64.4716 -1.23829 -27.4894
ltibia 50.4218
lfoot -11.8818 7.73482
ltoes -21.1109
